<mxfile host="app.diagrams.net" modified="2023-12-25T15:08:33.220Z" agent="Mozilla/5.0 (Windows NT 10.0; Win64; x64; rv:121.0) Gecko/20100101 Firefox/121.0" etag="fWQXg-vmLgXFg6Y3UEpW" version="22.1.11" type="dropbox">
  <diagram name="Page-1" id="xKZVrc7N6ZF7nqNPndqZ">
    <mxGraphModel dx="1434" dy="754" grid="1" gridSize="10" guides="1" tooltips="1" connect="1" arrows="1" fold="1" page="1" pageScale="1" pageWidth="1654" pageHeight="1169" math="0" shadow="0">
      <root>
        <mxCell id="0" />
        <mxCell id="1" parent="0" />
        <mxCell id="GmPcLuSzd5EldxKo1YOB-1" value="Central Idea" style="ellipse;whiteSpace=wrap;html=1;align=center;newEdgeStyle={&quot;edgeStyle&quot;:&quot;entityRelationEdgeStyle&quot;,&quot;startArrow&quot;:&quot;none&quot;,&quot;endArrow&quot;:&quot;none&quot;,&quot;segment&quot;:10,&quot;curved&quot;:1,&quot;sourcePerimeterSpacing&quot;:0,&quot;targetPerimeterSpacing&quot;:0};treeFolding=1;treeMoving=1;strokeWidth=2;fontSize=16;fontStyle=3;fillColor=#dae8fc;strokeColor=#6c8ebf;" vertex="1" parent="1">
          <mxGeometry x="620" y="250" width="130" height="60" as="geometry" />
        </mxCell>
        <mxCell id="GmPcLuSzd5EldxKo1YOB-2" value="Sub Topic" style="whiteSpace=wrap;html=1;rounded=1;arcSize=50;align=center;verticalAlign=middle;strokeWidth=1;autosize=1;spacing=4;treeFolding=1;treeMoving=1;newEdgeStyle={&quot;edgeStyle&quot;:&quot;entityRelationEdgeStyle&quot;,&quot;startArrow&quot;:&quot;none&quot;,&quot;endArrow&quot;:&quot;none&quot;,&quot;segment&quot;:10,&quot;curved&quot;:1,&quot;sourcePerimeterSpacing&quot;:0,&quot;targetPerimeterSpacing&quot;:0};fontSize=14;fontStyle=1;fillColor=#ffe6cc;strokeColor=#d79b00;" vertex="1" collapsed="1" parent="1">
          <mxGeometry x="795" y="140" width="110" height="30" as="geometry" />
        </mxCell>
        <mxCell id="GmPcLuSzd5EldxKo1YOB-3" value="" style="edgeStyle=entityRelationEdgeStyle;startArrow=none;endArrow=none;segment=10;curved=1;sourcePerimeterSpacing=0;targetPerimeterSpacing=0;rounded=0;exitX=1;exitY=0.5;exitDx=0;exitDy=0;" edge="1" target="GmPcLuSzd5EldxKo1YOB-2" parent="1" source="GmPcLuSzd5EldxKo1YOB-1">
          <mxGeometry relative="1" as="geometry">
            <mxPoint x="770" y="230" as="sourcePoint" />
          </mxGeometry>
        </mxCell>
        <mxCell id="GmPcLuSzd5EldxKo1YOB-4" value="Sub Topic" style="whiteSpace=wrap;html=1;rounded=1;arcSize=50;align=center;verticalAlign=middle;strokeWidth=1;autosize=1;spacing=4;treeFolding=1;treeMoving=1;newEdgeStyle={&quot;edgeStyle&quot;:&quot;entityRelationEdgeStyle&quot;,&quot;startArrow&quot;:&quot;none&quot;,&quot;endArrow&quot;:&quot;none&quot;,&quot;segment&quot;:10,&quot;curved&quot;:1,&quot;sourcePerimeterSpacing&quot;:0,&quot;targetPerimeterSpacing&quot;:0};fontSize=14;fontStyle=1;fillColor=#ffe6cc;strokeColor=#d79b00;" vertex="1" collapsed="1" parent="1">
          <mxGeometry x="805" y="365" width="110" height="30" as="geometry" />
        </mxCell>
        <mxCell id="GmPcLuSzd5EldxKo1YOB-5" value="" style="edgeStyle=entityRelationEdgeStyle;startArrow=none;endArrow=none;segment=10;curved=1;sourcePerimeterSpacing=0;targetPerimeterSpacing=0;rounded=0;" edge="1" target="GmPcLuSzd5EldxKo1YOB-4" parent="1" source="GmPcLuSzd5EldxKo1YOB-1">
          <mxGeometry relative="1" as="geometry">
            <mxPoint x="870" y="290" as="sourcePoint" />
          </mxGeometry>
        </mxCell>
        <mxCell id="GmPcLuSzd5EldxKo1YOB-8" value="Sub Topic" style="whiteSpace=wrap;html=1;rounded=1;arcSize=50;align=center;verticalAlign=middle;strokeWidth=1;autosize=1;spacing=4;treeFolding=1;treeMoving=1;newEdgeStyle={&quot;edgeStyle&quot;:&quot;entityRelationEdgeStyle&quot;,&quot;startArrow&quot;:&quot;none&quot;,&quot;endArrow&quot;:&quot;none&quot;,&quot;segment&quot;:10,&quot;curved&quot;:1,&quot;sourcePerimeterSpacing&quot;:0,&quot;targetPerimeterSpacing&quot;:0};fontSize=14;fontStyle=1;fillColor=#ffe6cc;strokeColor=#d79b00;" vertex="1" collapsed="1" parent="1">
          <mxGeometry x="480" y="370" width="110" height="30" as="geometry" />
        </mxCell>
        <mxCell id="GmPcLuSzd5EldxKo1YOB-9" value="" style="edgeStyle=entityRelationEdgeStyle;startArrow=none;endArrow=none;segment=10;curved=1;sourcePerimeterSpacing=0;targetPerimeterSpacing=0;rounded=0;exitX=0;exitY=0.5;exitDx=0;exitDy=0;" edge="1" target="GmPcLuSzd5EldxKo1YOB-8" parent="1" source="GmPcLuSzd5EldxKo1YOB-1">
          <mxGeometry relative="1" as="geometry">
            <mxPoint x="630" y="290" as="sourcePoint" />
            <Array as="points">
              <mxPoint x="500" y="250" />
            </Array>
          </mxGeometry>
        </mxCell>
        <mxCell id="GmPcLuSzd5EldxKo1YOB-11" value="Sub Topic" style="whiteSpace=wrap;html=1;rounded=1;arcSize=50;align=center;verticalAlign=middle;strokeWidth=1;autosize=1;spacing=4;treeFolding=1;treeMoving=1;newEdgeStyle={&quot;edgeStyle&quot;:&quot;entityRelationEdgeStyle&quot;,&quot;startArrow&quot;:&quot;none&quot;,&quot;endArrow&quot;:&quot;none&quot;,&quot;segment&quot;:10,&quot;curved&quot;:1,&quot;sourcePerimeterSpacing&quot;:0,&quot;targetPerimeterSpacing&quot;:0};" vertex="1" visible="0" parent="1">
          <mxGeometry x="1030" y="250" width="100" height="30" as="geometry" />
        </mxCell>
        <mxCell id="GmPcLuSzd5EldxKo1YOB-12" value="" style="edgeStyle=entityRelationEdgeStyle;startArrow=none;endArrow=none;segment=10;curved=1;sourcePerimeterSpacing=0;targetPerimeterSpacing=0;rounded=0;exitX=1;exitY=0.25;exitDx=0;exitDy=0;" edge="1" visible="0" target="GmPcLuSzd5EldxKo1YOB-11" parent="1" source="GmPcLuSzd5EldxKo1YOB-2">
          <mxGeometry relative="1" as="geometry">
            <mxPoint x="990" y="317.5" as="sourcePoint" />
            <Array as="points">
              <mxPoint x="960" y="320" />
            </Array>
          </mxGeometry>
        </mxCell>
        <mxCell id="GmPcLuSzd5EldxKo1YOB-13" value="Sub Topic" style="whiteSpace=wrap;html=1;rounded=1;arcSize=50;align=center;verticalAlign=middle;strokeWidth=1;autosize=1;spacing=4;treeFolding=1;treeMoving=1;newEdgeStyle={&quot;edgeStyle&quot;:&quot;entityRelationEdgeStyle&quot;,&quot;startArrow&quot;:&quot;none&quot;,&quot;endArrow&quot;:&quot;none&quot;,&quot;segment&quot;:10,&quot;curved&quot;:1,&quot;sourcePerimeterSpacing&quot;:0,&quot;targetPerimeterSpacing&quot;:0};" vertex="1" visible="0" parent="1">
          <mxGeometry x="1050" y="500" width="100" height="30" as="geometry" />
        </mxCell>
        <mxCell id="GmPcLuSzd5EldxKo1YOB-14" value="" style="edgeStyle=entityRelationEdgeStyle;startArrow=none;endArrow=none;segment=10;curved=1;sourcePerimeterSpacing=0;targetPerimeterSpacing=0;rounded=0;exitX=1;exitY=0.5;exitDx=0;exitDy=0;" edge="1" visible="0" target="GmPcLuSzd5EldxKo1YOB-13" parent="1" source="GmPcLuSzd5EldxKo1YOB-4">
          <mxGeometry relative="1" as="geometry">
            <mxPoint x="1010" y="435" as="sourcePoint" />
            <Array as="points">
              <mxPoint x="1060" y="485" />
            </Array>
          </mxGeometry>
        </mxCell>
        <mxCell id="GmPcLuSzd5EldxKo1YOB-15" value="Sub Topic" style="whiteSpace=wrap;html=1;rounded=1;arcSize=50;align=center;verticalAlign=middle;strokeWidth=1;autosize=1;spacing=4;treeFolding=1;treeMoving=1;newEdgeStyle={&quot;edgeStyle&quot;:&quot;entityRelationEdgeStyle&quot;,&quot;startArrow&quot;:&quot;none&quot;,&quot;endArrow&quot;:&quot;none&quot;,&quot;segment&quot;:10,&quot;curved&quot;:1,&quot;sourcePerimeterSpacing&quot;:0,&quot;targetPerimeterSpacing&quot;:0};fontSize=14;fontStyle=1;fillColor=#ffe6cc;strokeColor=#d79b00;" vertex="1" parent="1">
          <mxGeometry x="480" y="150" width="110" height="30" as="geometry" />
        </mxCell>
        <mxCell id="GmPcLuSzd5EldxKo1YOB-16" value="" style="edgeStyle=entityRelationEdgeStyle;startArrow=none;endArrow=none;segment=10;curved=1;sourcePerimeterSpacing=0;targetPerimeterSpacing=0;rounded=0;" edge="1" target="GmPcLuSzd5EldxKo1YOB-15" parent="1" source="GmPcLuSzd5EldxKo1YOB-1">
          <mxGeometry relative="1" as="geometry">
            <mxPoint x="440" y="160" as="sourcePoint" />
          </mxGeometry>
        </mxCell>
        <mxCell id="GmPcLuSzd5EldxKo1YOB-17" style="edgeStyle=entityRelationEdgeStyle;rounded=0;orthogonalLoop=1;jettySize=auto;html=1;startArrow=none;endArrow=none;segment=10;curved=1;sourcePerimeterSpacing=0;targetPerimeterSpacing=0;exitX=0;exitY=0.25;exitDx=0;exitDy=0;entryX=0.1;entryY=0.267;entryDx=0;entryDy=0;entryPerimeter=0;" edge="1" parent="1" source="GmPcLuSzd5EldxKo1YOB-2" target="GmPcLuSzd5EldxKo1YOB-2" visible="0">
          <mxGeometry relative="1" as="geometry" />
        </mxCell>
        <mxCell id="GmPcLuSzd5EldxKo1YOB-18" value="Branch" style="whiteSpace=wrap;html=1;shape=partialRectangle;top=0;left=0;bottom=1;right=0;points=[[0,1],[1,1]];fillColor=none;align=center;verticalAlign=bottom;routingCenterY=0.5;snapToPoint=1;recursiveResize=0;autosize=1;treeFolding=1;treeMoving=1;newEdgeStyle={&quot;edgeStyle&quot;:&quot;entityRelationEdgeStyle&quot;,&quot;startArrow&quot;:&quot;none&quot;,&quot;endArrow&quot;:&quot;none&quot;,&quot;segment&quot;:10,&quot;curved&quot;:1,&quot;sourcePerimeterSpacing&quot;:0,&quot;targetPerimeterSpacing&quot;:0};" vertex="1" parent="1">
          <mxGeometry x="960" y="70" width="80" height="30" as="geometry" />
        </mxCell>
        <mxCell id="GmPcLuSzd5EldxKo1YOB-19" value="" style="edgeStyle=entityRelationEdgeStyle;startArrow=none;endArrow=none;segment=10;curved=1;sourcePerimeterSpacing=0;targetPerimeterSpacing=0;rounded=0;exitX=1;exitY=0.5;exitDx=0;exitDy=0;" edge="1" target="GmPcLuSzd5EldxKo1YOB-18" parent="1" source="GmPcLuSzd5EldxKo1YOB-2">
          <mxGeometry relative="1" as="geometry">
            <mxPoint x="1010" y="180" as="sourcePoint" />
          </mxGeometry>
        </mxCell>
        <mxCell id="GmPcLuSzd5EldxKo1YOB-25" value="Branch" style="whiteSpace=wrap;html=1;shape=partialRectangle;top=0;left=0;bottom=1;right=0;points=[[0,1],[1,1]];fillColor=none;align=center;verticalAlign=bottom;routingCenterY=0.5;snapToPoint=1;recursiveResize=0;autosize=1;treeFolding=1;treeMoving=1;newEdgeStyle={&quot;edgeStyle&quot;:&quot;entityRelationEdgeStyle&quot;,&quot;startArrow&quot;:&quot;none&quot;,&quot;endArrow&quot;:&quot;none&quot;,&quot;segment&quot;:10,&quot;curved&quot;:1,&quot;sourcePerimeterSpacing&quot;:0,&quot;targetPerimeterSpacing&quot;:0};" vertex="1" parent="1">
          <mxGeometry x="960" y="130" width="80" height="30" as="geometry" />
        </mxCell>
        <mxCell id="GmPcLuSzd5EldxKo1YOB-26" value="" style="edgeStyle=entityRelationEdgeStyle;startArrow=none;endArrow=none;segment=10;curved=1;sourcePerimeterSpacing=0;targetPerimeterSpacing=0;rounded=0;exitX=1;exitY=0.5;exitDx=0;exitDy=0;" edge="1" target="GmPcLuSzd5EldxKo1YOB-25" parent="1" source="GmPcLuSzd5EldxKo1YOB-2">
          <mxGeometry relative="1" as="geometry">
            <mxPoint x="950" y="185" as="sourcePoint" />
          </mxGeometry>
        </mxCell>
        <mxCell id="GmPcLuSzd5EldxKo1YOB-28" value="Branch" style="whiteSpace=wrap;html=1;shape=partialRectangle;top=0;left=0;bottom=1;right=0;points=[[0,1],[1,1]];fillColor=none;align=center;verticalAlign=bottom;routingCenterY=0.5;snapToPoint=1;recursiveResize=0;autosize=1;treeFolding=1;treeMoving=1;newEdgeStyle={&quot;edgeStyle&quot;:&quot;entityRelationEdgeStyle&quot;,&quot;startArrow&quot;:&quot;none&quot;,&quot;endArrow&quot;:&quot;none&quot;,&quot;segment&quot;:10,&quot;curved&quot;:1,&quot;sourcePerimeterSpacing&quot;:0,&quot;targetPerimeterSpacing&quot;:0};" vertex="1" parent="1">
          <mxGeometry x="960" y="180" width="80" height="30" as="geometry" />
        </mxCell>
        <mxCell id="GmPcLuSzd5EldxKo1YOB-29" value="" style="edgeStyle=entityRelationEdgeStyle;startArrow=none;endArrow=none;segment=10;curved=1;sourcePerimeterSpacing=0;targetPerimeterSpacing=0;rounded=0;exitX=1;exitY=0.5;exitDx=0;exitDy=0;" edge="1" target="GmPcLuSzd5EldxKo1YOB-28" parent="1" source="GmPcLuSzd5EldxKo1YOB-2">
          <mxGeometry relative="1" as="geometry">
            <mxPoint x="990" y="280" as="sourcePoint" />
          </mxGeometry>
        </mxCell>
        <mxCell id="GmPcLuSzd5EldxKo1YOB-30" value="Branch" style="whiteSpace=wrap;html=1;shape=partialRectangle;top=0;left=0;bottom=1;right=0;points=[[0,1],[1,1]];fillColor=none;align=center;verticalAlign=bottom;routingCenterY=0.5;snapToPoint=1;recursiveResize=0;autosize=1;treeFolding=1;treeMoving=1;newEdgeStyle={&quot;edgeStyle&quot;:&quot;entityRelationEdgeStyle&quot;,&quot;startArrow&quot;:&quot;none&quot;,&quot;endArrow&quot;:&quot;none&quot;,&quot;segment&quot;:10,&quot;curved&quot;:1,&quot;sourcePerimeterSpacing&quot;:0,&quot;targetPerimeterSpacing&quot;:0};" vertex="1" parent="1">
          <mxGeometry x="360" y="70" width="80" height="30" as="geometry" />
        </mxCell>
        <mxCell id="GmPcLuSzd5EldxKo1YOB-31" value="" style="edgeStyle=entityRelationEdgeStyle;startArrow=none;endArrow=none;segment=10;curved=1;sourcePerimeterSpacing=0;targetPerimeterSpacing=0;rounded=0;exitX=0;exitY=0.25;exitDx=0;exitDy=0;" edge="1" parent="1" target="GmPcLuSzd5EldxKo1YOB-30" source="GmPcLuSzd5EldxKo1YOB-15">
          <mxGeometry relative="1" as="geometry">
            <mxPoint x="110" y="125" as="sourcePoint" />
          </mxGeometry>
        </mxCell>
        <mxCell id="GmPcLuSzd5EldxKo1YOB-32" value="Branch" style="whiteSpace=wrap;html=1;shape=partialRectangle;top=0;left=0;bottom=1;right=0;points=[[0,1],[1,1]];fillColor=none;align=center;verticalAlign=bottom;routingCenterY=0.5;snapToPoint=1;recursiveResize=0;autosize=1;treeFolding=1;treeMoving=1;newEdgeStyle={&quot;edgeStyle&quot;:&quot;entityRelationEdgeStyle&quot;,&quot;startArrow&quot;:&quot;none&quot;,&quot;endArrow&quot;:&quot;none&quot;,&quot;segment&quot;:10,&quot;curved&quot;:1,&quot;sourcePerimeterSpacing&quot;:0,&quot;targetPerimeterSpacing&quot;:0};" vertex="1" parent="1">
          <mxGeometry x="360" y="180" width="80" height="30" as="geometry" />
        </mxCell>
        <mxCell id="GmPcLuSzd5EldxKo1YOB-33" value="" style="edgeStyle=entityRelationEdgeStyle;startArrow=none;endArrow=none;segment=10;curved=1;sourcePerimeterSpacing=0;targetPerimeterSpacing=0;rounded=0;exitX=0;exitY=0.25;exitDx=0;exitDy=0;" edge="1" parent="1" target="GmPcLuSzd5EldxKo1YOB-32" source="GmPcLuSzd5EldxKo1YOB-15">
          <mxGeometry relative="1" as="geometry">
            <mxPoint x="110" y="125" as="sourcePoint" />
            <Array as="points">
              <mxPoint x="320" y="300" />
            </Array>
          </mxGeometry>
        </mxCell>
        <mxCell id="GmPcLuSzd5EldxKo1YOB-34" value="Branch" style="whiteSpace=wrap;html=1;shape=partialRectangle;top=0;left=0;bottom=1;right=0;points=[[0,1],[1,1]];fillColor=none;align=center;verticalAlign=bottom;routingCenterY=0.5;snapToPoint=1;recursiveResize=0;autosize=1;treeFolding=1;treeMoving=1;newEdgeStyle={&quot;edgeStyle&quot;:&quot;entityRelationEdgeStyle&quot;,&quot;startArrow&quot;:&quot;none&quot;,&quot;endArrow&quot;:&quot;none&quot;,&quot;segment&quot;:10,&quot;curved&quot;:1,&quot;sourcePerimeterSpacing&quot;:0,&quot;targetPerimeterSpacing&quot;:0};" vertex="1" parent="1">
          <mxGeometry x="360" y="130" width="80" height="30" as="geometry" />
        </mxCell>
        <mxCell id="GmPcLuSzd5EldxKo1YOB-35" value="" style="edgeStyle=entityRelationEdgeStyle;startArrow=none;endArrow=none;segment=10;curved=1;sourcePerimeterSpacing=0;targetPerimeterSpacing=0;rounded=0;exitX=0;exitY=0.25;exitDx=0;exitDy=0;" edge="1" parent="1" target="GmPcLuSzd5EldxKo1YOB-34" source="GmPcLuSzd5EldxKo1YOB-15">
          <mxGeometry relative="1" as="geometry">
            <mxPoint x="110" y="125" as="sourcePoint" />
          </mxGeometry>
        </mxCell>
        <mxCell id="GmPcLuSzd5EldxKo1YOB-42" value="Branch" style="whiteSpace=wrap;html=1;shape=partialRectangle;top=0;left=0;bottom=1;right=0;points=[[0,1],[1,1]];fillColor=none;align=center;verticalAlign=bottom;routingCenterY=0.5;snapToPoint=1;recursiveResize=0;autosize=1;treeFolding=1;treeMoving=1;newEdgeStyle={&quot;edgeStyle&quot;:&quot;entityRelationEdgeStyle&quot;,&quot;startArrow&quot;:&quot;none&quot;,&quot;endArrow&quot;:&quot;none&quot;,&quot;segment&quot;:10,&quot;curved&quot;:1,&quot;sourcePerimeterSpacing&quot;:0,&quot;targetPerimeterSpacing&quot;:0};" vertex="1" parent="1">
          <mxGeometry x="360" y="300" width="80" height="30" as="geometry" />
        </mxCell>
        <mxCell id="GmPcLuSzd5EldxKo1YOB-43" value="" style="edgeStyle=entityRelationEdgeStyle;startArrow=none;endArrow=none;segment=10;curved=1;sourcePerimeterSpacing=0;targetPerimeterSpacing=0;rounded=0;exitX=0;exitY=0.5;exitDx=0;exitDy=0;" edge="1" parent="1" target="GmPcLuSzd5EldxKo1YOB-42" source="GmPcLuSzd5EldxKo1YOB-8">
          <mxGeometry relative="1" as="geometry">
            <mxPoint x="390" y="398" as="sourcePoint" />
            <Array as="points">
              <mxPoint x="480" y="340" />
            </Array>
          </mxGeometry>
        </mxCell>
        <mxCell id="GmPcLuSzd5EldxKo1YOB-44" value="Branch" style="whiteSpace=wrap;html=1;shape=partialRectangle;top=0;left=0;bottom=1;right=0;points=[[0,1],[1,1]];fillColor=none;align=center;verticalAlign=bottom;routingCenterY=0.5;snapToPoint=1;recursiveResize=0;autosize=1;treeFolding=1;treeMoving=1;newEdgeStyle={&quot;edgeStyle&quot;:&quot;entityRelationEdgeStyle&quot;,&quot;startArrow&quot;:&quot;none&quot;,&quot;endArrow&quot;:&quot;none&quot;,&quot;segment&quot;:10,&quot;curved&quot;:1,&quot;sourcePerimeterSpacing&quot;:0,&quot;targetPerimeterSpacing&quot;:0};" vertex="1" parent="1">
          <mxGeometry x="360" y="450" width="80" height="10" as="geometry" />
        </mxCell>
        <mxCell id="GmPcLuSzd5EldxKo1YOB-45" value="" style="edgeStyle=entityRelationEdgeStyle;startArrow=none;endArrow=none;segment=10;curved=1;sourcePerimeterSpacing=0;targetPerimeterSpacing=0;rounded=0;exitX=0;exitY=0.5;exitDx=0;exitDy=0;" edge="1" parent="1" target="GmPcLuSzd5EldxKo1YOB-44" source="GmPcLuSzd5EldxKo1YOB-8">
          <mxGeometry relative="1" as="geometry">
            <mxPoint x="390" y="398" as="sourcePoint" />
            <Array as="points">
              <mxPoint x="320" y="490" />
            </Array>
          </mxGeometry>
        </mxCell>
        <mxCell id="GmPcLuSzd5EldxKo1YOB-46" value="Branch" style="whiteSpace=wrap;html=1;shape=partialRectangle;top=0;left=0;bottom=1;right=0;points=[[0,1],[1,1]];fillColor=none;align=center;verticalAlign=bottom;routingCenterY=0.5;snapToPoint=1;recursiveResize=0;autosize=1;treeFolding=1;treeMoving=1;newEdgeStyle={&quot;edgeStyle&quot;:&quot;entityRelationEdgeStyle&quot;,&quot;startArrow&quot;:&quot;none&quot;,&quot;endArrow&quot;:&quot;none&quot;,&quot;segment&quot;:10,&quot;curved&quot;:1,&quot;sourcePerimeterSpacing&quot;:0,&quot;targetPerimeterSpacing&quot;:0};" vertex="1" parent="1">
          <mxGeometry x="360" y="370" width="80" height="30" as="geometry" />
        </mxCell>
        <mxCell id="GmPcLuSzd5EldxKo1YOB-47" value="" style="edgeStyle=entityRelationEdgeStyle;startArrow=none;endArrow=none;segment=10;curved=1;sourcePerimeterSpacing=0;targetPerimeterSpacing=0;rounded=0;exitX=0;exitY=0.5;exitDx=0;exitDy=0;" edge="1" parent="1" target="GmPcLuSzd5EldxKo1YOB-46" source="GmPcLuSzd5EldxKo1YOB-8">
          <mxGeometry relative="1" as="geometry">
            <mxPoint x="390" y="398" as="sourcePoint" />
          </mxGeometry>
        </mxCell>
        <mxCell id="GmPcLuSzd5EldxKo1YOB-51" value="Branch" style="whiteSpace=wrap;html=1;shape=partialRectangle;top=0;left=0;bottom=1;right=0;points=[[0,1],[1,1]];fillColor=none;align=center;verticalAlign=bottom;routingCenterY=0.5;snapToPoint=1;recursiveResize=0;autosize=1;treeFolding=1;treeMoving=1;newEdgeStyle={&quot;edgeStyle&quot;:&quot;entityRelationEdgeStyle&quot;,&quot;startArrow&quot;:&quot;none&quot;,&quot;endArrow&quot;:&quot;none&quot;,&quot;segment&quot;:10,&quot;curved&quot;:1,&quot;sourcePerimeterSpacing&quot;:0,&quot;targetPerimeterSpacing&quot;:0};" vertex="1" parent="1">
          <mxGeometry x="960" y="290" width="80" height="30" as="geometry" />
        </mxCell>
        <mxCell id="GmPcLuSzd5EldxKo1YOB-52" value="" style="edgeStyle=entityRelationEdgeStyle;startArrow=none;endArrow=none;segment=10;curved=1;sourcePerimeterSpacing=0;targetPerimeterSpacing=0;rounded=0;exitX=1;exitY=0.5;exitDx=0;exitDy=0;" edge="1" parent="1" target="GmPcLuSzd5EldxKo1YOB-51" source="GmPcLuSzd5EldxKo1YOB-4">
          <mxGeometry relative="1" as="geometry">
            <mxPoint x="1000" y="430" as="sourcePoint" />
          </mxGeometry>
        </mxCell>
        <mxCell id="GmPcLuSzd5EldxKo1YOB-53" value="Branch" style="whiteSpace=wrap;html=1;shape=partialRectangle;top=0;left=0;bottom=1;right=0;points=[[0,1],[1,1]];fillColor=none;align=center;verticalAlign=bottom;routingCenterY=0.5;snapToPoint=1;recursiveResize=0;autosize=1;treeFolding=1;treeMoving=1;newEdgeStyle={&quot;edgeStyle&quot;:&quot;entityRelationEdgeStyle&quot;,&quot;startArrow&quot;:&quot;none&quot;,&quot;endArrow&quot;:&quot;none&quot;,&quot;segment&quot;:10,&quot;curved&quot;:1,&quot;sourcePerimeterSpacing&quot;:0,&quot;targetPerimeterSpacing&quot;:0};" vertex="1" parent="1">
          <mxGeometry x="960" y="350" width="80" height="30" as="geometry" />
        </mxCell>
        <mxCell id="GmPcLuSzd5EldxKo1YOB-54" value="" style="edgeStyle=entityRelationEdgeStyle;startArrow=none;endArrow=none;segment=10;curved=1;sourcePerimeterSpacing=0;targetPerimeterSpacing=0;rounded=0;exitX=1;exitY=0.5;exitDx=0;exitDy=0;" edge="1" parent="1" target="GmPcLuSzd5EldxKo1YOB-53" source="GmPcLuSzd5EldxKo1YOB-4">
          <mxGeometry relative="1" as="geometry">
            <mxPoint x="1000" y="430" as="sourcePoint" />
            <Array as="points">
              <mxPoint x="1010" y="395" />
            </Array>
          </mxGeometry>
        </mxCell>
        <mxCell id="GmPcLuSzd5EldxKo1YOB-55" value="Branch" style="whiteSpace=wrap;html=1;shape=partialRectangle;top=0;left=0;bottom=1;right=0;points=[[0,1],[1,1]];fillColor=none;align=center;verticalAlign=bottom;routingCenterY=0.5;snapToPoint=1;recursiveResize=0;autosize=1;treeFolding=1;treeMoving=1;newEdgeStyle={&quot;edgeStyle&quot;:&quot;entityRelationEdgeStyle&quot;,&quot;startArrow&quot;:&quot;none&quot;,&quot;endArrow&quot;:&quot;none&quot;,&quot;segment&quot;:10,&quot;curved&quot;:1,&quot;sourcePerimeterSpacing&quot;:0,&quot;targetPerimeterSpacing&quot;:0};" vertex="1" parent="1">
          <mxGeometry x="960" y="400" width="80" height="30" as="geometry" />
        </mxCell>
        <mxCell id="GmPcLuSzd5EldxKo1YOB-56" value="" style="edgeStyle=entityRelationEdgeStyle;startArrow=none;endArrow=none;segment=10;curved=1;sourcePerimeterSpacing=0;targetPerimeterSpacing=0;rounded=0;exitX=1;exitY=0.5;exitDx=0;exitDy=0;" edge="1" parent="1" target="GmPcLuSzd5EldxKo1YOB-55" source="GmPcLuSzd5EldxKo1YOB-4">
          <mxGeometry relative="1" as="geometry">
            <mxPoint x="1000" y="430" as="sourcePoint" />
          </mxGeometry>
        </mxCell>
      </root>
    </mxGraphModel>
  </diagram>
</mxfile>
